<svg width="38" height="38" viewBox="0 0 38 38" fill="none" xmlns="http://www.w3.org/2000/svg">
<rect width="38" height="38" rx="19" fill="white"/>
<path d="M21.3391 9.12C18.6139 9.12 16.3991 11.3348 16.3991 14.06V16.14H13.7991C13.7301 16.14 13.664 16.1674 13.6152 16.2162C13.5665 16.2649 13.5391 16.331 13.5391 16.4V20.04C13.5391 20.1089 13.5665 20.1751 13.6152 20.2238C13.664 20.2726 13.7301 20.3 13.7991 20.3H16.3991V28.62C16.3991 28.6889 16.4265 28.7551 16.4752 28.8038C16.524 28.8526 16.5901 28.88 16.6591 28.88H20.2991C20.368 28.88 20.4341 28.8526 20.4829 28.8038C20.5317 28.7551 20.5591 28.6889 20.5591 28.62V20.3H23.6791C23.7417 20.3 23.8022 20.2774 23.8495 20.2364C23.8968 20.1953 23.9277 20.1386 23.9365 20.0766L24.4565 16.4366C24.4618 16.3997 24.459 16.3621 24.4485 16.3264C24.4379 16.2907 24.4198 16.2577 24.3954 16.2296C24.371 16.2014 24.3409 16.1789 24.307 16.1634C24.2731 16.148 24.2363 16.14 24.1991 16.14H20.5591V14.58C20.5591 13.5718 21.3709 12.76 22.3791 12.76H24.1991C24.268 12.76 24.3341 12.7326 24.3829 12.6838C24.4317 12.6351 24.4591 12.5689 24.4591 12.5V9.64C24.459 9.57987 24.4382 9.5216 24.4 9.47512C24.3619 9.42864 24.3088 9.39682 24.2498 9.38507C24.2498 9.38507 22.9279 9.12 21.3391 9.12ZM21.3391 9.64C22.6774 9.64 23.672 9.81387 23.9391 9.86292V12.24H22.3791C21.0898 12.24 20.0391 13.2908 20.0391 14.58V16.4C20.0391 16.4689 20.0665 16.5351 20.1152 16.5838C20.164 16.6326 20.2301 16.66 20.2991 16.66H23.8995L23.4536 19.78H20.2991C20.2301 19.78 20.164 19.8074 20.1152 19.8562C20.0665 19.9049 20.0391 19.971 20.0391 20.04V28.36H16.9191V20.04C16.9191 19.971 16.8917 19.9049 16.8429 19.8562C16.7941 19.8074 16.728 19.78 16.6591 19.78H14.0591V16.66H16.6591C16.728 16.66 16.7941 16.6326 16.8429 16.5838C16.8917 16.5351 16.9191 16.4689 16.9191 16.4V14.06C16.9191 11.6159 18.8949 9.64 21.3391 9.64ZM21.3391 10.42C19.3331 10.42 17.6991 12.054 17.6991 14.06V14.19C17.6988 14.2072 17.702 14.2243 17.7084 14.2403C17.7148 14.2563 17.7244 14.2708 17.7365 14.2831C17.7486 14.2954 17.763 14.3051 17.7789 14.3118C17.7948 14.3184 17.8118 14.3218 17.8291 14.3218C17.8463 14.3218 17.8633 14.3184 17.8792 14.3118C17.8951 14.3051 17.9095 14.2954 17.9216 14.2831C17.9337 14.2708 17.9433 14.2563 17.9497 14.2403C17.9561 14.2243 17.9593 14.2072 17.9591 14.19V14.06C17.9591 12.1951 19.4741 10.68 21.3391 10.68C21.968 10.68 22.5566 10.7269 23.0143 10.779C23.0313 10.781 23.0485 10.7795 23.0649 10.7748C23.0813 10.7701 23.0967 10.7622 23.11 10.7516C23.1234 10.741 23.1346 10.7278 23.1428 10.7128C23.1511 10.6979 23.1564 10.6815 23.1583 10.6645C23.1603 10.6475 23.1588 10.6303 23.1541 10.6139C23.1494 10.5975 23.1415 10.5822 23.1309 10.5688C23.1202 10.5554 23.1071 10.5443 23.0921 10.536C23.0772 10.5277 23.0608 10.5225 23.0438 10.5205C22.5786 10.4676 21.981 10.42 21.3391 10.42ZM17.827 14.838C17.81 14.8382 17.7931 14.8419 17.7774 14.8486C17.7618 14.8554 17.7476 14.8652 17.7357 14.8775C17.7238 14.8897 17.7145 14.9042 17.7082 14.9201C17.7019 14.936 17.6988 14.9529 17.6991 14.97V15.75C17.6988 15.7672 17.702 15.7843 17.7084 15.8003C17.7148 15.8163 17.7244 15.8308 17.7365 15.8431C17.7486 15.8554 17.763 15.8651 17.7789 15.8718C17.7948 15.8784 17.8118 15.8818 17.8291 15.8818C17.8463 15.8818 17.8633 15.8784 17.8792 15.8718C17.8951 15.8651 17.9095 15.8554 17.9216 15.8431C17.9337 15.8308 17.9433 15.8163 17.9497 15.8003C17.9561 15.7843 17.9593 15.7672 17.9591 15.75V14.97C17.9593 14.9526 17.9561 14.9353 17.9496 14.9191C17.943 14.903 17.9333 14.8883 17.921 14.876C17.9087 14.8637 17.894 14.854 17.8779 14.8475C17.8617 14.8409 17.8444 14.8377 17.827 14.838ZM17.827 16.138C17.81 16.1382 17.7931 16.1419 17.7774 16.1486C17.7618 16.1554 17.7476 16.1652 17.7357 16.1775C17.7238 16.1897 17.7145 16.2042 17.7082 16.2201C17.7019 16.236 17.6988 16.2529 17.6991 16.27V16.53C17.6988 16.5472 17.702 16.5643 17.7084 16.5803C17.7148 16.5963 17.7244 16.6108 17.7365 16.6231C17.7486 16.6354 17.763 16.6451 17.7789 16.6518C17.7948 16.6584 17.8118 16.6618 17.8291 16.6618C17.8463 16.6618 17.8633 16.6584 17.8792 16.6518C17.8951 16.6451 17.9095 16.6354 17.9216 16.6231C17.9337 16.6108 17.9433 16.5963 17.9497 16.5803C17.9561 16.5643 17.9593 16.5472 17.9591 16.53V16.27C17.9593 16.2526 17.9561 16.2353 17.9496 16.2191C17.943 16.203 17.9333 16.1883 17.921 16.176C17.9087 16.1637 17.894 16.154 17.8779 16.1475C17.8617 16.1409 17.8444 16.1377 17.827 16.138ZM17.827 19.778C17.81 19.7782 17.7931 19.7819 17.7774 19.7886C17.7618 19.7954 17.7476 19.8052 17.7357 19.8175C17.7238 19.8297 17.7145 19.8442 17.7082 19.8601C17.7019 19.876 17.6988 19.8929 17.6991 19.91V27.45C17.6988 27.4672 17.702 27.4843 17.7084 27.5003C17.7148 27.5163 17.7244 27.5308 17.7365 27.5431C17.7486 27.5554 17.763 27.5651 17.7789 27.5718C17.7948 27.5784 17.8118 27.5818 17.8291 27.5818C17.8463 27.5818 17.8633 27.5784 17.8792 27.5718C17.8951 27.5651 17.9095 27.5554 17.9216 27.5431C17.9337 27.5308 17.9433 27.5163 17.9497 27.5003C17.9561 27.4843 17.9593 27.4672 17.9591 27.45V19.91C17.9593 19.8926 17.9561 19.8753 17.9496 19.8591C17.943 19.843 17.9333 19.8283 17.921 19.816C17.9087 19.8037 17.894 19.794 17.8779 19.7875C17.8617 19.7809 17.8444 19.7777 17.827 19.778Z" fill="#070707"/>
</svg>
