<svg width="108" height="108" viewBox="0 0 108 108" fill="none" xmlns="http://www.w3.org/2000/svg">
<rect width="108" height="108" rx="54" fill="#4D92DE"/>
<path d="M19.0678 71.9816C19.2139 71.3242 19.3234 70.4477 19.3965 69.3521C19.506 68.2565 19.5791 67.1426 19.6156 66.0104C19.6886 64.8783 19.7252 63.947 19.7252 63.2166V33.8536H31.3389V60.587C31.3389 61.8288 31.2293 62.9426 31.0102 63.9287C30.8276 64.9148 30.645 65.6452 30.4624 66.12L29.3667 63.8739C29.6954 63.9105 30.0424 63.9652 30.4076 64.0383C30.8093 64.0748 31.1928 64.0931 31.558 64.0931C32.9458 64.0931 34.0597 63.9105 34.8997 63.5452C35.7397 63.18 36.3605 62.6322 36.7623 61.9018C37.2005 61.1349 37.5109 60.1853 37.6935 59.0531L41.6378 33.8536H53.2515L48.869 60.8062C48.4308 63.6183 47.6456 65.8826 46.5134 67.5991C45.3812 69.3156 43.9569 70.6121 42.2404 71.4886C40.5239 72.3651 38.5518 72.9677 36.324 73.2964C34.0962 73.5886 31.631 73.7346 28.9285 73.7346C27.3215 73.7346 25.6781 73.6251 23.9981 73.406C22.3547 73.2233 20.7843 72.9677 19.2869 72.639L19.0678 71.9816ZM58.0574 73.2964L57.4 72.639C57.2904 72.2373 57.1991 71.8173 57.1261 71.379C57.0895 70.9408 57.0713 70.5573 57.0713 70.2286C57.0713 69.133 57.2539 68.1652 57.6191 67.3252C57.9843 66.4852 58.4591 65.627 59.0434 64.7504L76.464 40.0439L78.4361 43.9334H57.8382V33.8536H88.6255L89.2829 34.511C89.356 34.8396 89.429 35.2414 89.502 35.7161C89.5751 36.1909 89.6116 36.5927 89.6116 36.9213C89.6116 38.017 89.429 38.9848 89.0638 39.8248C88.7351 40.6648 88.2603 41.523 87.6395 42.3995L70.2189 67.1061L68.2467 63.2166H89.7212V73.2964H58.0574Z" fill="white"/>
</svg>
