<svg width="38" height="38" viewBox="0 0 38 38" fill="none" xmlns="http://www.w3.org/2000/svg">
<rect width="38" height="38" rx="19" fill="white"/>
<path d="M14.048 10.5901C12.1843 10.5901 10.668 12.1064 10.668 13.9701V24.1101C10.668 25.9738 12.1843 27.4901 14.048 27.4901H24.188C26.0517 27.4901 27.568 25.9738 27.568 24.1101V13.9701C27.568 12.1061 26.0517 10.5901 24.188 10.5901H14.048ZM14.048 11.1101H24.188C25.7649 11.1101 27.048 12.3932 27.048 13.9701V24.1101C27.048 25.687 25.7649 26.9701 24.188 26.9701H14.048C12.4711 26.9701 11.188 25.687 11.188 24.1101V13.9701C11.188 12.3932 12.4711 11.1101 14.048 11.1101ZM14.7858 11.8896C13.2321 11.8896 11.968 13.1537 11.968 14.7074V23.3722C11.968 24.926 13.2321 26.1896 14.7858 26.1896H23.4501C25.0039 26.1896 26.268 24.926 26.268 23.3722V18.5201C26.268 18.4481 26.2097 18.3901 26.138 18.3901C26.0662 18.3901 26.008 18.4483 26.008 18.5201V23.3722C26.008 24.7825 24.8604 25.9301 23.4501 25.9301H14.7858C13.3756 25.9301 12.228 24.7825 12.228 23.3722V14.7074C12.228 13.2972 13.3756 12.1496 14.7858 12.1496H23.538C23.6097 12.1496 23.668 12.0913 23.668 12.0196C23.668 11.9478 23.6097 11.8896 23.538 11.8896H14.7858ZM18.9981 15.0208C17.9636 15.0208 17.8374 15.0236 17.432 15.0441C17.0527 15.0605 16.7564 15.1167 16.4728 15.2269C16.1907 15.3356 15.9709 15.4784 15.7593 15.689C15.5474 15.8996 15.4036 16.1184 15.2941 16.3984C15.1834 16.6803 15.1264 16.9742 15.1098 17.3587C15.0924 17.7555 15.0864 17.8891 15.0864 18.9081C15.0864 19.9364 15.0898 20.062 15.1103 20.4645C15.1267 20.8418 15.1834 21.1361 15.2941 21.4182C15.4036 21.6985 15.5474 21.917 15.7593 22.1276C15.9709 22.3382 16.1907 22.4808 16.4728 22.5897C16.7562 22.6997 17.0525 22.7561 17.4402 22.773C17.8393 22.7902 17.9735 22.7959 18.9981 22.7959C20.0327 22.7959 20.1591 22.7931 20.5642 22.7725C20.9436 22.7561 21.2393 22.6999 21.523 22.5897C21.8048 22.481 22.0251 22.3382 22.237 22.1276C22.4489 21.917 22.5921 21.6982 22.7016 21.4182C22.8124 21.1363 22.8693 20.8422 22.8859 20.4589C22.9034 20.0622 22.9098 19.9285 22.9098 18.9086C22.9098 17.88 22.9067 17.7543 22.8859 17.3521C22.8696 16.9746 22.8124 16.6805 22.7016 16.3984C22.5921 16.1182 22.4489 15.8991 22.237 15.6885C22.0251 15.4779 21.8053 15.3359 21.5235 15.2269C21.2401 15.1169 20.9438 15.0605 20.5561 15.0436C20.157 15.0264 20.0228 15.0208 18.9981 15.0208ZM18.9986 15.2808C20.0176 15.2808 20.1508 15.2862 20.5536 15.3036C20.9038 15.3189 21.1739 15.3703 21.43 15.4697C21.6768 15.5648 21.8693 15.689 22.0541 15.8729C22.2393 16.0569 22.3647 16.248 22.4604 16.4929V16.4934C22.5602 16.7477 22.6114 17.0154 22.6264 17.3638C22.647 17.7611 22.6503 17.886 22.6503 18.9081C22.6501 19.9228 22.6439 20.055 22.6264 20.4533C22.6111 20.801 22.56 21.0694 22.4599 21.3237C22.3642 21.5684 22.239 21.7597 22.0536 21.9438C21.8688 22.1276 21.676 22.2518 21.429 22.347C21.1727 22.4463 20.9028 22.4979 20.552 22.513C20.1519 22.5333 20.0264 22.5359 18.9981 22.5359C17.9789 22.5359 17.8457 22.5304 17.4432 22.513C17.093 22.4977 16.8228 22.4463 16.5667 22.347C16.3197 22.2515 16.1275 22.1276 15.9426 21.9438C15.7575 21.7597 15.6323 21.5684 15.5364 21.3232C15.4365 21.0687 15.3854 20.8007 15.3703 20.4523C15.35 20.0548 15.347 19.9301 15.347 18.9081C15.347 17.8946 15.3529 17.7627 15.3703 17.3633C15.3857 17.0157 15.4368 16.7469 15.5369 16.4929C15.6326 16.248 15.7575 16.0567 15.9426 15.8729C16.1275 15.689 16.3202 15.5648 16.5672 15.4697C16.8236 15.3703 17.094 15.3187 17.4447 15.3036C17.8451 15.2833 17.9703 15.2808 18.9986 15.2808ZM26.138 15.7901C26.0662 15.7901 26.008 15.8481 26.008 15.9201V16.4401C26.008 16.5118 26.0662 16.5701 26.138 16.5701C26.2097 16.5701 26.268 16.5118 26.268 16.4401V15.9201C26.268 15.8483 26.2097 15.7901 26.138 15.7901ZM21.0857 16.1908C20.7644 16.1908 20.5028 16.4509 20.5028 16.7707C20.5028 17.0905 20.7644 17.3506 21.0857 17.3506C21.4071 17.3506 21.6687 17.0905 21.6687 16.7707C21.669 16.4509 21.4074 16.1908 21.0857 16.1908ZM21.0857 16.4508C21.2638 16.4508 21.4087 16.5941 21.4087 16.7707C21.409 16.9472 21.2641 17.0906 21.0857 17.0906C20.9076 17.0906 20.7628 16.9472 20.7628 16.7707C20.7628 16.5941 20.9076 16.4508 21.0857 16.4508ZM26.138 16.8301C26.0662 16.8301 26.008 16.8883 26.008 16.9601V18.0001C26.008 18.0718 26.0662 18.1301 26.138 18.1301C26.2097 18.1301 26.268 18.0718 26.268 18.0001V16.9601C26.268 16.8881 26.2097 16.8301 26.138 16.8301ZM18.9951 16.8474C17.8519 16.8474 16.9217 17.7716 16.9217 18.9081C16.9217 20.0445 17.8519 20.9693 18.9951 20.9693C20.1383 20.9693 21.0685 20.0445 21.0685 18.9081C21.0685 17.7719 20.1383 16.8474 18.9951 16.8474ZM18.9951 17.1074C19.995 17.1074 20.8085 17.9149 20.8085 18.9081C20.8085 19.9013 19.995 20.7093 18.9951 20.7093C17.9951 20.7093 17.1817 19.9013 17.1817 18.9081C17.1817 17.9151 17.9951 17.1074 18.9951 17.1074Z" fill="#070707"/>
</svg>
